<svg width="21" height="20" viewBox="0 0 21 20" fill="none" xmlns="http://www.w3.org/2000/svg">
<path fill-rule="evenodd" clip-rule="evenodd" d="M16.6823 6.66668C16.6823 9.08334 15.4323 11.1666 13.5156 12.3333C16.849 13.5 19.349 16.4167 20.0156 20H18.3489C17.5156 16.1666 14.0989 13.3333 10.0156 13.3333C5.93232 13.3333 2.51562 16.1667 1.6823 20H0.015625C0.682266 16.5 3.18227 13.5833 6.51559 12.3333C4.59893 11.1667 3.34895 9.08334 3.34895 6.66668C3.34895 3 6.34898 0 10.0156 0C13.6823 0 16.6823 3 16.6823 6.66668ZM10.0156 1.66668C7.26564 1.66668 5.01562 3.9167 5.01562 6.66668C5.01562 9.41666 7.26564 11.6667 10.0156 11.6667C12.7656 11.6667 15.0156 9.41666 15.0156 6.66668C15.0156 3.9167 12.7656 1.66668 10.0156 1.66668Z" fill="#8DD83D"/>
</svg>
